# xmcd CD database file
#
# Track frame offsets:
#	150
#	15327
#	30655
#	50142
#	63287
#	84880
#	101862
#	117457
#	138825
#	163365
#	183592
#
# Disc length: 2636 seconds
#
# Revision: 0
# Processed by: cddbd v1.5.1PL2 Copyright (c) Steve Scherf et al.
# Submitted via: CDex 1.51
#
DISCID=920a4a0b
DTITLE=Kamen Katsata - Strahat na gargte
DYEAR=1994
DGENRE=Blues
TTITLE0=Bluesman
TTITLE1=Boli me glavata
TTITLE2=Dostoen dart dingil
TTITLE3=Barbeque Man
TTITLE4=I'm Not in Love (Anymore)
TTITLE5=Bye, Bye Baby
TTITLE6=G-zha Bivshata
TTITLE7=Imen den
TTITLE8=Ball and Chain Blues
TTITLE9=Utre pomisli dobre(i)
TTITLE10=Tia (naistin) vsichko mozhela
EXTD=YEAR: 1994
EXTT0=
EXTT1=
EXTT2=
EXTT3=
EXTT4=
EXTT5=
EXTT6=
EXTT7=
EXTT8=
EXTT9=
EXTT10=
PLAYORDER=
